<svg xmlns="http://www.w3.org/2000/svg" viewBox="0 0 15.03 13.42"><defs><style>.cls-1{fill:#d8253b;}</style></defs><g id="Layer_2" data-name="Layer 2"><g id="Layer_1-2" data-name="Layer 1"><path class="cls-1" d="M7.51,13.42a1.07,1.07,0,0,1-.72-.3l-.58-.5c-1.13-1-2.31-2-3.46-3A10.55,10.55,0,0,1,.91,7.49,5.06,5.06,0,0,1,.32,2.85,4.43,4.43,0,0,1,1.52,1a4.08,4.08,0,0,1,2-.95A5.08,5.08,0,0,1,4.35,0,4,4,0,0,1,7.52,1.62h0a4.1,4.1,0,0,1,6.67.2A4.71,4.71,0,0,1,15,4.09s0,0,0,.08v.06h0V5c0,.08,0,.17,0,.26s-.06.4-.11.6a5.77,5.77,0,0,1-1,2.08,16.28,16.28,0,0,1-2.45,2.52L8.55,12.87l-.27.23A1.16,1.16,0,0,1,7.51,13.42ZM4.33,1.29a2.91,2.91,0,0,0-.64.07,2.84,2.84,0,0,0-2.17,2A3.78,3.78,0,0,0,2,6.8,9.72,9.72,0,0,0,3.63,8.65l2.29,2,.84.73.61.52.15.13.91-.79.07,0c.79-.69,1.62-1.4,2.42-2.11A11.52,11.52,0,0,0,13,6.8a3.83,3.83,0,0,0,.68-2.65A3.08,3.08,0,0,0,12.22,1.7a2.67,2.67,0,0,0-2.65-.13A3.2,3.2,0,0,0,8.3,2.75l-.06.08L8.14,3A.75.75,0,0,1,6.9,3l-.17-.23a5.13,5.13,0,0,0-.45-.57A2.62,2.62,0,0,0,4.33,1.29Z"/></g></g></svg>