<svg xmlns="http://www.w3.org/2000/svg" viewBox="0 0 15.99 16.64"><defs><style>.cls-1{fill:#59bcc6;}</style></defs><g id="Layer_2" data-name="Layer 2"><g id="Layer_1-2" data-name="Layer 1"><path class="cls-1" d="M16,7V2.77A2.63,2.63,0,0,0,14,.11,14.86,14.86,0,0,0,11.1,0H4.89A14.71,14.71,0,0,0,2,.11,2.62,2.62,0,0,0,0,2.77V7c0,3.73,0,3.45,0,7.19a2.37,2.37,0,0,0,1.61,2.4l.27,0a2.93,2.93,0,0,0,2.3-.82v0L6.93,13l1-1L8,12l.05.06,1,1,2.75,2.75v0a2.9,2.9,0,0,0,2.29.82l.28,0a2.37,2.37,0,0,0,1.6-2.4C16,10.47,16,10.75,16,7Zm-2.21,7.9h-.19a1.9,1.9,0,0,1-.49-.4l-2.76-2.76-1-1A1.93,1.93,0,0,0,8,10.17a1.9,1.9,0,0,0-1.33.6l-1,1L2.91,14.53a2.1,2.1,0,0,1-.5.4H2.22c-.12,0-.43-.09-.43-.7,0-3.75,0-3.47,0-7.2V2.77a.88.88,0,0,1,.63-.93,1.48,1.48,0,0,1,.33,0H13.23a1.42,1.42,0,0,1,.33,0,.87.87,0,0,1,.63.93V7c0,3.73,0,3.45,0,7.2C14.2,14.83,13.89,14.9,13.77,14.92Z"/></g></g></svg>