<svg xmlns="http://www.w3.org/2000/svg" viewBox="0 0 13.31 13.3"><defs><style>.cls-1{fill:#606060;}</style></defs><g id="Layer_2" data-name="Layer 2"><g id="Layer_1-2" data-name="Layer 1"><path class="cls-1" d="M6.66,0A6.65,6.65,0,1,1,3.57,12.54a.4.4,0,0,0-.24,0l-2.51.74a.81.81,0,0,1-.41,0A.58.58,0,0,1,0,12.5c.14-.47.28-.94.43-1.41L.79,10a.31.31,0,0,0,0-.21A6.64,6.64,0,0,1,6.66,0ZM1.51,11.8l1.71-.52a.82.82,0,0,1,.73.08A5.29,5.29,0,0,0,7.49,12,5.44,5.44,0,1,0,1.22,6.64,5.24,5.24,0,0,0,2,9.39.75.75,0,0,1,2,10c-.09.24-.15.48-.23.73S1.62,11.43,1.51,11.8Z" transform="translate(0 0)"/></g></g></svg>