<svg xmlns="http://www.w3.org/2000/svg" viewBox="0 0 24.3 15.7"><defs><style>.cls-1{fill:#59bcc6;}</style></defs><g id="Layer_2" data-name="Layer 2"><g id="Layer_1-2" data-name="Layer 1"><path class="cls-1" d="M24.3,8.13a3.31,3.31,0,0,1-.9,1.37A21.28,21.28,0,0,1,18,14a12.42,12.42,0,0,1-4.56,1.63,10.06,10.06,0,0,1-4.74-.52,16.92,16.92,0,0,1-6-3.73C2,10.62,1.23,9.82.5,9a1.61,1.61,0,0,1,0-2.34A23,23,0,0,1,6,1.89,12.73,12.73,0,0,1,10.62.12a10.33,10.33,0,0,1,5.44.64,18,18,0,0,1,5.66,3.73c.61.58,1.18,1.19,1.76,1.8a2.88,2.88,0,0,1,.82,1.27ZM12.19,1.49a9.33,9.33,0,0,0-3.77.83A19.48,19.48,0,0,0,1.6,7.68.22.22,0,0,0,1.6,8a20.34,20.34,0,0,0,6.09,5,10,10,0,0,0,4.16,1.17,9.27,9.27,0,0,0,4.38-1A19.81,19.81,0,0,0,22.72,8a.21.21,0,0,0,0-.32,20,20,0,0,0-6.07-5A9.81,9.81,0,0,0,12.19,1.49Z"/><path class="cls-1" d="M17.39,7.84a5.23,5.23,0,1,1-5.24-5.22A5.24,5.24,0,0,1,17.39,7.84ZM12.17,4.11A3.74,3.74,0,1,0,15.9,7.86,3.76,3.76,0,0,0,12.17,4.11Z"/></g></g></svg>