<svg xmlns="http://www.w3.org/2000/svg" viewBox="0 0 16.7 16.71"><defs><style>.cls-1{fill:#59bcc6;}</style></defs><g id="Layer_2" data-name="Layer 2"><g id="Layer_1-2" data-name="Layer 1"><path class="cls-1" d="M12,16.71a2.51,2.51,0,0,1-1.21-.33C10,16,9.23,15.55,8.32,15l-1.52.85-.88.48a2.32,2.32,0,0,1-1.18.34,2.5,2.5,0,0,1-1.91-.87,2.38,2.38,0,0,1-.54-1.95c.11-.68.23-1.36.33-2l.18-1.07-1-1L.76,8.7A2.43,2.43,0,0,1,.13,6.15,2.41,2.41,0,0,1,2.18,4.5l1.58-.25L4.9,4.07c.37-.8.82-1.77,1.27-2.69a2.4,2.4,0,0,1,4-.5,2.37,2.37,0,0,1,.34.54l1.25,2.67,2.86.44a2.32,2.32,0,0,1,1.9,1.61A2.35,2.35,0,0,1,16,8.61c-.73.76-1.49,1.53-2.15,2.2.18,1.13.33,2.1.47,3.09a2.33,2.33,0,0,1-1,2.36A2.36,2.36,0,0,1,12,16.71Zm-3.63-3.4a1.16,1.16,0,0,1,.58.16c1,.57,1.85,1,2.64,1.46a.69.69,0,0,0,.84,0,.7.7,0,0,0,.32-.77c-.14-1-.3-2.05-.49-3.26a1.15,1.15,0,0,1,.33-1.06c.7-.71,1.51-1.53,2.28-2.34a.7.7,0,0,0,.17-.8.67.67,0,0,0-.6-.51L11.3,5.68A1.13,1.13,0,0,1,10.4,5C10,4.08,9.53,3.14,9.05,2.13a.71.71,0,0,0-.12-.2.72.72,0,0,0-.68-.27.77.77,0,0,0-.6.43c-.47,1-1,2-1.35,2.88a1.19,1.19,0,0,1-.91.7L4,5.88l-1.59.25a.77.77,0,0,0-.73.54.76.76,0,0,0,.24.87L3,8.61l1.18,1.2a1.13,1.13,0,0,1,.3,1l-.21,1.29-.33,2a.71.71,0,0,0,.17.61.81.81,0,0,0,.65.29h0a.81.81,0,0,0,.35-.13L6,14.43l1.73-1A1.16,1.16,0,0,1,8.32,13.31Z"/></g></g></svg>