<svg xmlns="http://www.w3.org/2000/svg" viewBox="0 0 11.96 13.68"><defs><style>.cls-1{fill:#606060;}</style></defs><g id="Layer_2" data-name="Layer 2"><g id="Layer_1-2" data-name="Layer 1"><path class="cls-1" d="M9.58,13.68a2.37,2.37,0,0,1-1.9-1,2.31,2.31,0,0,1-.38-2l0-.14-.12-.07L4.13,8.62,4,8.54l-.11.09a2.35,2.35,0,0,1-1.53.58,2.47,2.47,0,0,1-1-.22A2.35,2.35,0,0,1,0,6.68a2.26,2.26,0,0,1,1.5-2,2.4,2.4,0,0,1,.89-.18,2.3,2.3,0,0,1,1.5.59L4,5.13l.9-.55,2.3-1.43.12-.07,0-.14a2.33,2.33,0,0,1,.27-1.81A2.44,2.44,0,0,1,9.24,0h.63L10,0l.2.05A2.36,2.36,0,0,1,11.48,1,2.29,2.29,0,0,1,12,2.45a2.36,2.36,0,0,1-2,2.26l-.35,0a2.3,2.3,0,0,1-1.52-.57L8,4.07,4.63,6.13l0,.13a2.53,2.53,0,0,1,0,1.16l0,.13L8,9.61l.12-.11A2.35,2.35,0,0,1,9.59,9a2.45,2.45,0,0,1,1.18.31A2.36,2.36,0,0,1,10,13.64,2,2,0,0,1,9.58,13.68ZM9.4,10.14a1.13,1.13,0,0,0-.66.33,1.2,1.2,0,0,0,.85,2h0a1.19,1.19,0,0,0,.85-.35,1.2,1.2,0,0,0-.66-2v-.2H9.4Zm-7-4.49A1.19,1.19,0,1,0,2.36,8h0a1.19,1.19,0,0,0,0-2.38ZM9.58,1.17a1.2,1.2,0,0,0,0,2.39,1.21,1.21,0,0,0,.85-.35,1.18,1.18,0,0,0,.35-.84,1.19,1.19,0,0,0-1.19-1.2h0Z"/></g></g></svg>