<svg xmlns="http://www.w3.org/2000/svg" viewBox="0 0 20.55 20.54"><defs><style>.cls-1{fill:#59bcc6;}</style></defs><g id="Layer_2" data-name="Layer 2"><g id="Layer_1-2" data-name="Layer 1"><path class="cls-1" d="M0,8A2.08,2.08,0,0,1,1.44,5.8L5.5,4.39,17.67.16a2,2,0,0,1,2.19.38,2,2,0,0,1,.54,2.28L19.2,6.3Q17,12.66,14.77,19a2.09,2.09,0,0,1-2.14,1.51,2.2,2.2,0,0,1-1-.36h0a.71.71,0,0,1-.14-.1h0a2.9,2.9,0,0,1-.63-.92h0C9.88,17,9,14.87,8.06,12.73a.45.45,0,0,0-.25-.24L5.9,11.67,1.24,9.62A2.09,2.09,0,0,1,.09,8.37,1.9,1.9,0,0,1,0,8ZM18,1.54l0,0-.18.07L8.37,4.85,2,7.09a1,1,0,0,0-.46.32c-.28.39-.08.84.42,1.05l6.22,2.67a.27.27,0,0,0,.36-.06l9.39-9.4Zm1,1,0,0-.09.09L9.45,12.07a.22.22,0,0,0,0,.3c.66,1.52,1.31,3.05,2,4.57.25.59.5,1.18.76,1.77a.68.68,0,0,0,1.1.27,1,1,0,0,0,.24-.42Q16,11.45,18.41,4.34Z"/></g></g></svg>