<svg xmlns="http://www.w3.org/2000/svg" viewBox="0 0 19.27 13.56"><defs><style>.cls-1{fill:#59bcc6;}</style></defs><g id="Layer_2" data-name="Layer 2"><g id="Layer_1-2" data-name="Layer 1"><path class="cls-1" d="M0,1.51A4.47,4.47,0,0,1,.34.7,1.62,1.62,0,0,1,1.72,0H17.46a1.65,1.65,0,0,1,1.62,1,1.78,1.78,0,0,1,.18.78c0,3.36,0,6.71,0,10.07a1.7,1.7,0,0,1-1.8,1.74h-13c-.88,0-1.76,0-2.63,0A1.75,1.75,0,0,1,0,12.08l0,0Zm2-.37A.37.37,0,0,0,2,1.23L8.4,7.56A1.91,1.91,0,0,0,9.06,8a1.65,1.65,0,0,0,1.85-.46l6.28-6.25.13-.13Zm.11,11.27H17.21L12.46,7.56c-.28.28-.53.55-.8.81a2.78,2.78,0,0,1-2.81.74,2.73,2.73,0,0,1-1.27-.77l-.77-.78ZM1.14,1.93v9.7L5.91,6.77Zm17,0L13.38,6.77l4.75,4.83Z"/></g></g></svg>